HIERARCHY
ROOT hip
{
  OFFSET 0 0 0
  CHANNELS 6 Xposition Yposition Zposition Zrotation Yrotation Xrotation
  JOINT abdomen
  {
    OFFSET 0 20.6881 -0.73152
    CHANNELS 3 Zrotation Xrotation Yrotation
    JOINT chest
    {
      OFFSET 0 11.7043 -0.48768
      CHANNELS 3 Zrotation Xrotation Yrotation
      JOINT neck
      {
        OFFSET 0 22.1894 -2.19456
        CHANNELS 3 Zrotation Xrotation Yrotation
        JOINT head
        {
          OFFSET -0.24384 7.07133 1.2192
          CHANNELS 3 Zrotation Xrotation Yrotation
          JOINT leftEye
          {
            OFFSET 4.14528 8.04674 8.04672
            CHANNELS 3 Zrotation Xrotation Yrotation
            End Site
            {
              OFFSET 1 0 0
            }
          }
          JOINT rightEye
          {
            OFFSET -3.6576 8.04674 8.04672
            CHANNELS 3 Zrotation Xrotation Yrotation
            End Site
            {
              OFFSET 1 0 0
            }
          }
        }
      }
      JOINT rCollar
      {
        OFFSET -2.68224 19.2634 -4.8768
        CHANNELS 3 Zrotation Xrotation Yrotation
        JOINT rShldr
        {
          OFFSET -8.77824 -1.95073 1.46304
          CHANNELS 3 Zrotation Xrotation Yrotation
          JOINT rForeArm
          {
            OFFSET -28.1742 -1.7115 0.48768
            CHANNELS 3 Zrotation Xrotation Yrotation
            JOINT rHand
            {
              OFFSET -22.5879 0.773209 7.07136
              CHANNELS 3 Zrotation Xrotation Yrotation
              JOINT rThumb1
              {
                OFFSET -1.2192 -0.487915 3.41376
                CHANNELS 3 Zrotation Xrotation Yrotation
                JOINT rThumb2
                {
                  OFFSET -3.37035 -0.52449 3.41376
                  CHANNELS 3 Zrotation Xrotation Yrotation
                  End Site
                  {
                    OFFSET -1.78271 -1.18214 1.43049
                  }
                }
              }
              JOINT rIndex1
              {
                OFFSET -7.75947 0.938293 5.60832
                CHANNELS 3 Zrotation Xrotation Yrotation
                JOINT rIndex2
                {
                  OFFSET -2.54057 -0.884171 1.56538
                  CHANNELS 3 Zrotation Xrotation Yrotation
                  End Site
                  {
                    OFFSET -1.62519 -0.234802 1.16502
                  }
                }
              }
              JOINT rMid1
              {
                OFFSET -8.24714 1.18213 3.41376
                CHANNELS 3 Zrotation Xrotation Yrotation
                JOINT rMid2
                {
                  OFFSET -3.10165 -0.590103 1.0647
                  CHANNELS 3 Zrotation Xrotation Yrotation
                  End Site
                  {
                    OFFSET -2.48547 -0.328903 0.83742
                  }
                }
              }
              JOINT rRing1
              {
                OFFSET -8.82822 0.546677 1.51678
                CHANNELS 3 Zrotation Xrotation Yrotation
                JOINT rRing2
                {
                  OFFSET -2.60934 -0.819778 -0.0198488
                  CHANNELS 3 Zrotation Xrotation Yrotation
                  End Site
                  {
                    OFFSET -2.33842 -0.294052 0.168128
                  }
                }
              }
              JOINT rPinky1
              {
                OFFSET -8.27202 -0.0477905 -0.4584
                CHANNELS 3 Zrotation Xrotation Yrotation
                JOINT rPinky2
                {
                  OFFSET -1.82734 -0.647385 -0.700984
                  CHANNELS 3 Zrotation Xrotation Yrotation
                  End Site
                  {
                    OFFSET -1.69225 -0.51767 -0.607171
                  }
                }
              }
            }
          }
        }
      }
      JOINT lCollar
      {
        OFFSET 2.68224 19.2634 -4.8768
        CHANNELS 3 Zrotation Xrotation Yrotation
        JOINT lShldr
        {
          OFFSET 8.77824 -1.95073 1.46304
          CHANNELS 3 Zrotation Xrotation Yrotation
          JOINT lForeArm
          {
            OFFSET 28.1742 -1.7115 0.48768
            CHANNELS 3 Zrotation Xrotation Yrotation
            JOINT lHand
            {
              OFFSET 22.5879 0.773209 7.07136
              CHANNELS 3 Zrotation Xrotation Yrotation
              JOINT lThumb1
              {
                OFFSET 1.2192 -0.487915 3.41376
                CHANNELS 3 Zrotation Xrotation Yrotation
                JOINT lThumb2
                {
                  OFFSET 3.37035 -0.52449 3.41376
                  CHANNELS 3 Zrotation Xrotation Yrotation
                  End Site
                  {
                    OFFSET 1.78271 -1.18214 1.43049
                  }
                }
              }
              JOINT lIndex1
              {
                OFFSET 7.75947 0.938293 5.60832
                CHANNELS 3 Zrotation Xrotation Yrotation
                JOINT lIndex2
                {
                  OFFSET 2.54057 -0.884171 1.56538
                  CHANNELS 3 Zrotation Xrotation Yrotation
                  End Site
                  {
                    OFFSET 1.62519 -0.234802 1.16502
                  }
                }
              }
              JOINT lMid1
              {
                OFFSET 8.24714 1.18213 3.41376
                CHANNELS 3 Zrotation Xrotation Yrotation
                JOINT lMid2
                {
                  OFFSET 3.10165 -0.590103 1.0647
                  CHANNELS 3 Zrotation Xrotation Yrotation
                  End Site
                  {
                    OFFSET 2.48547 -0.328903 0.83742
                  }
                }
              }
              JOINT lRing1
              {
                OFFSET 8.82822 0.546677 1.51678
                CHANNELS 3 Zrotation Xrotation Yrotation
                JOINT lRing2
                {
                  OFFSET 2.60934 -0.819778 -0.0198488
                  CHANNELS 3 Zrotation Xrotation Yrotation
                  End Site
                  {
                    OFFSET 2.33842 -0.294052 0.168128
                  }
                }
              }
              JOINT lPinky1
              {
                OFFSET 8.27202 -0.0477905 -0.4584
                CHANNELS 3 Zrotation Xrotation Yrotation
                JOINT lPinky2
                {
                  OFFSET 1.82734 -0.647385 -0.700984
                  CHANNELS 3 Zrotation Xrotation Yrotation
                  End Site
                  {
                    OFFSET 1.69225 -0.51767 -0.607171
                  }
                }
              }
            }
          }
        }
      }
    }
  }
  JOINT rButtock
  {
    OFFSET -8.77824 4.35084 1.2192
    CHANNELS 3 Zrotation Xrotation Yrotation
    JOINT rThigh
    {
      OFFSET 0 -1.70687 -2.19456
      CHANNELS 3 Zrotation Xrotation Yrotation
      JOINT rShin
      {
        OFFSET 0 -36.8199 0.73152
        CHANNELS 3 Zrotation Xrotation Yrotation
        JOINT rFoot
        {
          OFFSET 0.73152 -45.1104 -5.12064
          CHANNELS 3 Zrotation Xrotation Yrotation
          End Site
          {
            OFFSET -1.1221 -3.69964 12.103
          }
        }
      }
    }
  }
  JOINT lButtock
  {
    OFFSET 8.77824 4.35084 1.2192
    CHANNELS 3 Zrotation Xrotation Yrotation
    JOINT lThigh
    {
      OFFSET 0 -1.70687 -2.19456
      CHANNELS 3 Zrotation Xrotation Yrotation
      JOINT lShin
      {
        OFFSET 0 -36.8199 0.73152
        CHANNELS 3 Zrotation Xrotation Yrotation
        JOINT lFoot
        {
          OFFSET -0.73152 -45.1104 -5.12064
          CHANNELS 3 Zrotation Xrotation Yrotation
          End Site
          {
            OFFSET 1.1221 -3.69964 12.103
          }
        }
      }
    }
  }
}
MOTION
Frames:	5
Frame Time:	0.00833333
0.0470523 83.9933 0.455071 0.0 0.0 0.0 -1.70621 -0.00254504 -0.0464499 -0.470558 0.00242719 -0.0814843 4.13003e-14 -2.38542e-15 -4.47266e-16 1.23312e-13 -6.36111e-15 -1.3682e-15 -0.0 0.0 0.0 -0.0 0.0 0.0 2.0524e-14 2.91188e-17 -4.96962e-17 4.3503e-13 6.70898e-16 -2.78299e-15 7.43639e-12 -2.20711e-12 -1.59028e-13 8.52014e-11 2.33694e-12 -8.46028e-13 2.00954e-10 2.7972e-13 -2.19458e-12 3.47022e-10 4.80264e-13 -3.79917e-12 2.0096e-10 2.78299e-13 -2.19776e-12 7.73091 5.47488 0.417314 2.00953e-10 2.79292e-13 -2.1914e-12 2.90554 0.965183 0.102902 2.00961e-10 2.80088e-13 -2.19379e-12 10.2786 0.731801 0.0259123 2.00945e-10 2.82274e-13 -2.18504e-12 2.22167 -0.733487 -0.20892 2.05264e-14 2.79541e-17 -4.47265e-16 4.2954e-13 4.84538e-16 -4.37326e-15 7.45433e-12 2.24169e-12 -1.65389e-13 8.5182e-11 -2.11842e-12 -8.33305e-13 2.00953e-10 2.67907e-13 -2.19458e-12 3.47054e-10 4.6118e-13 -3.78884e-12 2.00947e-10 2.66769e-13 -2.18504e-12 -7.73091 5.47488 -0.417314 2.00953e-10 2.67763e-13 -2.19458e-12 -2.90554 0.965183 -0.102902 2.00952e-10 2.67962e-13 -2.19299e-12 -10.2786 0.731801 -0.0259123 2.00959e-10 2.71142e-13 -2.2073e-12 -2.22167 -0.733487 0.20892 -2.03217e-16 0.0 -3.88251e-19 -0.810787 -1.9244 -0.00361012 -0.00901404 -2.07859 -0.0743005 -0.483672 3.99775 0.136109 2.03217e-16 0.0 3.88251e-19 -1.78667 -6.85419 0.170491 -0.00323684 6.85134 -0.0863743 0.513234 -0.00229455 -0.0582163
-0.613044 83.0869 -0.576692 1.1169 -11.0917 2.855 -2.31933 -0.515706 -1.02779 0.513883 0.168135 -0.385959 -2.64567 -1.48162 -0.635692 1.9961 2.77994 -0.477776 -0.0 0.0 0.0 -0.0 0.0 0.0 -1.58985e-14 -2.12775e-14 3.36105e-14 21.1341 5.60146 -0.111954 -4.5025 -2.10534 6.96677 0.0639887 5.61628 0.775686 -1.26248e-10 3.68307e-10 2.39165e-10 -2.14522e-10 6.32846e-10 4.18171e-10 -1.26245e-10 3.68308e-10 2.39161e-10 7.73091 5.47488 0.417314 -1.2625e-10 3.68308e-10 2.39168e-10 2.90554 0.965183 0.102902 -1.26245e-10 3.68312e-10 2.39165e-10 10.2786 0.731801 0.0259123 -1.26256e-10 3.6831e-10 2.39175e-10 2.22167 -0.733487 -0.20892 -1.59034e-14 -2.128e-14 3.32514e-14 -20.2092 14.0686 -4.57011 16.5383 -13.9397 -14.8816 -0.00200904 -0.997295 0.140085 2.4799e-10 -3.00964e-10 -3.09082e-11 4.27848e-10 -5.1935e-10 -5.3457e-11 2.47986e-10 -3.00964e-10 -3.08995e-11 -7.73091 5.47488 -0.417314 2.47992e-10 -3.00962e-10 -3.09054e-11 -2.90554 0.965183 -0.102902 2.47989e-10 -3.00962e-10 -3.09061e-11 -10.2786 0.731801 -0.0259123 2.47997e-10 -3.00959e-10 -3.092e-11 -2.22167 -0.733487 0.20892 -2.03217e-16 0.0 -3.88251e-19 -2.36247 -4.61172 2.50051 -0.00430338 4.59872 0.0552105 -0.538315 0.133962 -0.854321 2.03217e-16 0.0 3.88251e-19 -2.09255 -6.56155 -0.261699 -0.0083514 9.51982 -0.147809 0.570193 -2.48106 1.75847
-0.596586 83.0838 -0.587594 1.1391 -10.9629 2.9107 -2.9893 -1.05041 -2.06636 1.55897 0.340037 -0.70809 -5.48285 -3.04179 -1.31722 4.17015 5.6967 -1.00159 -0.0 0.0 0.0 -0.0 0.0 0.0 -5.65445e-14 -4.43269e-14 7.2193e-14 43.4994 11.5204 -0.237121 -8.70803 -4.22577 14.3586 -0.0368411 11.5543 1.62146 -4.78626e-10 7.72567e-10 5.0661e-10 -8.19149e-10 1.32745e-09 8.85614e-10 -4.78625e-10 7.72571e-10 5.06606e-10 7.73091 5.47488 0.417314 -4.78628e-10 7.72571e-10 5.06612e-10 2.90554 0.965183 0.102902 -4.78628e-10 7.72577e-10 5.0661e-10 10.2786 0.731801 0.0259123 -4.78632e-10 7.72572e-10 5.0662e-10 2.22167 -0.733487 -0.20892 -5.65552e-14 -4.43309e-14 7.18731e-14 -38.8536 28.6366 -10.3634 25.8531 -25.4863 -33.2892 0.00117106 -2.0426 0.287057 3.09431e-10 -6.69503e-10 -7.12072e-11 5.33505e-10 -1.15534e-09 -1.23113e-10 3.09429e-10 -6.69501e-10 -7.11993e-11 -7.73091 5.47488 -0.417314 3.09434e-10 -6.69499e-10 -7.12013e-11 -2.90554 0.965183 -0.102902 3.09431e-10 -6.69498e-10 -7.12044e-11 -10.2786 0.731801 -0.0259123 3.09438e-10 -6.69496e-10 -7.1218e-11 -2.22167 -0.733487 0.20892 -2.03217e-16 0.0 -3.88251e-19 -3.74678 -7.42952 5.1744 -0.0326179 11.6595 0.195761 -0.741308 -3.94945 -1.90384 2.03217e-16 0.0 3.88251e-19 -2.41265 -6.24873 -0.719186 -0.00738193 12.3408 -0.214182 0.801987 -5.0931 3.69215
-0.590156 83.09 -0.570205 1.1799 -10.9553 2.8298 -3.59831 -1.54018 -2.99142 2.48805 0.499486 -0.99494 -8.03588 -4.44268 -1.91219 6.12862 8.33748 -1.44694 -0.0 0.0 0.0 -0.0 0.0 0.0 -8.87436e-14 -6.38907e-14 1.00931e-13 63.4704 16.8041 -0.349168 -12.0025 -5.9433 21.0043 -0.281485 16.8362 2.41966 -7.80652e-10 1.10436e-09 7.21884e-10 -1.33761e-09 1.89758e-09 1.26211e-09 -7.80654e-10 1.10437e-09 7.21879e-10 7.73091 5.47488 0.417314 -7.80656e-10 1.10437e-09 7.21885e-10 2.90554 0.965183 0.102902 -7.80659e-10 1.10438e-09 7.21884e-10 10.2786 0.731801 0.0259123 -7.80657e-10 1.10437e-09 7.21894e-10 2.22167 -0.733487 -0.20892 -8.87629e-14 -6.38959e-14 1.00649e-13 -52.1315 40.9505 -17.7311 27.8102 -29.8869 -52.2817 0.00861971 -2.99181 0.420764 3.42065e-10 -9.03428e-10 -8.83355e-11 5.89437e-10 -1.55897e-09 -1.52793e-10 3.42064e-10 -9.03425e-10 -8.83283e-11 -7.73091 5.47488 -0.417314 3.42069e-10 -9.03422e-10 -8.8327e-11 -2.90554 0.965183 -0.102902 3.42063e-10 -9.03421e-10 -8.83322e-11 -10.2786 0.731801 -0.0259123 3.42071e-10 -9.03419e-10 -8.83454e-11 -2.22167 -0.733487 0.20892 -2.03217e-16 0.0 -3.88251e-19 -4.75394 -9.91344 7.59856 -0.0886046 17.9531 0.329653 -1.05029 -7.58424 -2.85955 2.03217e-16 0.0 3.88251e-19 -2.69097 -5.97528 -1.12461 -0.000799814 14.8567 -0.275 1.15825 -7.40905 5.43238
-0.578841 83.0975 -0.556739 1.2605 -10.9863 2.7349 -4.0188 -1.9193 -3.63183 3.12354 0.62786 -1.19356 -9.80722 -5.44759 -2.28583 7.44311 10.2908 -1.68263 -0.0 0.0 0.0 -0.0 0.0 0.0 -9.98256e-14 -7.47403e-14 1.05058e-13 77.4037 20.5003 -0.414923 -14.0653 -7.00731 25.6857 -0.544236 20.4901 3.01047 -9.56802e-10 1.25499e-09 8.06732e-10 -1.64065e-09 2.1565e-09 1.41124e-09 -9.56805e-10 1.255e-09 8.06725e-10 7.73091 5.47488 0.417314 -9.56805e-10 1.255e-09 8.06732e-10 2.90554 0.965183 0.102902 -9.5681e-10 1.25501e-09 8.06731e-10 10.2786 0.731801 0.0259123 -9.56806e-10 1.255e-09 8.06741e-10 2.22167 -0.733487 -0.20892 -9.98602e-14 -7.47459e-14 1.04809e-13 -58.37 48.7217 -25.3692 27.6039 -28.6198 -65.0502 0.0168277 -3.70088 0.520856 3.02677e-10 -8.00818e-10 -4.75366e-11 5.2106e-10 -1.38171e-09 -8.25354e-11 3.02678e-10 -8.00814e-10 -4.75302e-11 -7.73091 5.47488 -0.417314 3.02682e-10 -8.00811e-10 -4.7527e-11 -2.90554 0.965183 -0.102902 3.02675e-10 -8.0081e-10 -4.75334e-11 -10.2786 0.731801 -0.0259123 3.02684e-10 -8.00809e-10 -4.75461e-11 -2.22167 -0.733487 0.20892 -2.03217e-16 0.0 -3.88251e-19 -5.32182 -11.6293 9.31896 -0.146482 22.329 0.430757 -1.34041 -10.1074 -3.55039 2.03217e-16 0.0 3.88251e-19 -2.87449 -5.80093 -1.40091 0.00709032 16.6099 -0.318457 1.48942 -9.01316 6.65021
